<svg width="104" height="29" viewBox="0 0 104 29" fill="none" xmlns="http://www.w3.org/2000/svg">
<path d="M5.99905 10.5865C5.99905 7.27284 8.68535 4.58655 11.9991 4.58655H97.1291V19.5865C97.1291 22.9003 94.4428 25.5865 91.1291 25.5865H5.99905V10.5865Z" stroke="#0E38B1" stroke-width="2"/>
<path d="M18.8219 15.5143C18.8219 16.3112 18.693 17.0045 18.4352 17.5944C18.1773 18.1803 17.8199 18.651 17.3629 19.0065L18.7809 20.1198L17.6617 21.11L15.8453 19.651C15.6383 19.6862 15.4234 19.7037 15.2008 19.7037C14.4937 19.7037 13.8629 19.5338 13.3082 19.194C12.7535 18.8541 12.3238 18.3698 12.0191 17.7408C11.7144 17.108 11.5602 16.3815 11.5562 15.5612V15.1393C11.5562 14.2994 11.7066 13.5612 12.0074 12.9244C12.3121 12.2838 12.7398 11.7936 13.2906 11.4537C13.8453 11.11 14.4781 10.9381 15.1891 10.9381C15.9 10.9381 16.5309 11.11 17.0816 11.4537C17.6363 11.7936 18.0641 12.2838 18.3648 12.9244C18.6695 13.5612 18.8219 14.2975 18.8219 15.1334V15.5143ZM17.0406 15.1276C17.0406 14.233 16.8805 13.5533 16.5602 13.0885C16.2398 12.6237 15.7828 12.3912 15.1891 12.3912C14.5992 12.3912 14.1441 12.6217 13.8238 13.0826C13.5035 13.5397 13.3414 14.2115 13.3375 15.0983V15.5143C13.3375 16.3854 13.4977 17.0612 13.818 17.5416C14.1383 18.0221 14.5992 18.2623 15.2008 18.2623C15.7906 18.2623 16.2437 18.0319 16.5602 17.5709C16.8766 17.1061 17.0367 16.4303 17.0406 15.5436V15.1276ZM23.3087 18.1744H27.0412V19.5865H21.5509V11.0553H23.3087V18.1744ZM34.4284 17.8287H31.3464L30.7605 19.5865H28.8913L32.0671 11.0553H33.696L36.8894 19.5865H35.0202L34.4284 17.8287ZM31.821 16.4049H33.9538L32.8816 13.2115L31.821 16.4049ZM39.1262 19.5865V11.0553H42.1145C43.1497 11.0553 43.9348 11.2545 44.47 11.653C45.0051 12.0475 45.2727 12.6276 45.2727 13.3932C45.2727 13.8112 45.1653 14.1803 44.9505 14.5006C44.7356 14.817 44.4368 15.0494 44.054 15.1979C44.4915 15.3073 44.8352 15.528 45.0852 15.86C45.3391 16.192 45.4661 16.5983 45.4661 17.0787C45.4661 17.899 45.2044 18.5201 44.6809 18.942C44.1575 19.3639 43.4114 19.5787 42.4426 19.5865H39.1262ZM40.8841 15.8717V18.1744H42.3899C42.804 18.1744 43.1262 18.0768 43.3567 17.8815C43.5911 17.6823 43.7083 17.4088 43.7083 17.0612C43.7083 16.2799 43.304 15.8834 42.4954 15.8717H40.8841ZM40.8841 14.6295H42.1848C43.0716 14.6139 43.5149 14.2604 43.5149 13.569C43.5149 13.1823 43.4016 12.9049 43.1751 12.7369C42.9524 12.5651 42.5989 12.4791 42.1145 12.4791H40.8841V14.6295ZM64.6148 19.5865H64.2984V11.4537L61.8491 12.3737V12.028L64.5503 11.0319H64.6148V19.5865ZM74.668 11.2545L70.9122 19.5865H70.5899L74.3048 11.3717H69.2188V11.0553H74.668V11.2545ZM82.6178 16.1061C82.6178 17.2506 82.3951 18.1373 81.9498 18.7662C81.5045 19.3912 80.8795 19.7037 80.0748 19.7037C79.2741 19.7037 78.6471 19.3873 78.194 18.7545C77.7409 18.1217 77.5143 17.2311 77.5143 16.0826V14.5358C77.5143 13.403 77.7369 12.5201 78.1823 11.8873C78.6315 11.2506 79.2584 10.9323 80.0631 10.9323C80.8717 10.9323 81.4987 11.2506 81.944 11.8873C82.3932 12.5201 82.6178 13.4108 82.6178 14.5592V16.1061ZM82.3014 14.5358C82.3014 13.5006 82.1061 12.694 81.7155 12.1158C81.3287 11.5377 80.778 11.2487 80.0631 11.2487C79.3444 11.2487 78.7916 11.5397 78.4049 12.1217C78.0221 12.6998 77.8307 13.5143 77.8307 14.5651V16.0944C77.8307 17.1256 78.028 17.9323 78.4225 18.5143C78.817 19.0963 79.3678 19.3873 80.0748 19.3873C80.7858 19.3873 81.3346 19.0963 81.7213 18.5143C82.108 17.9323 82.3014 17.1158 82.3014 16.0651V14.5358ZM87.2394 15.0748H87.9543C88.6223 15.0631 89.1613 14.8854 89.5715 14.5416C89.9855 14.1979 90.1926 13.7604 90.1926 13.2291C90.1926 12.6237 90.007 12.1432 89.6359 11.7877C89.2687 11.4323 88.757 11.2545 88.1008 11.2545C87.4602 11.2545 86.9328 11.442 86.5187 11.817C86.1047 12.192 85.8977 12.6842 85.8977 13.2936H85.5812C85.5812 12.8405 85.6906 12.4342 85.9094 12.0748C86.1281 11.7155 86.4309 11.4362 86.8176 11.2369C87.2043 11.0377 87.632 10.9381 88.1008 10.9381C88.8391 10.9381 89.425 11.1471 89.8586 11.5651C90.2922 11.9791 90.509 12.5416 90.509 13.2526C90.509 13.7057 90.3644 14.11 90.0754 14.4655C89.7902 14.8209 89.4035 15.0729 88.9152 15.2213C89.4738 15.3502 89.9094 15.5924 90.2219 15.9479C90.5383 16.3033 90.6965 16.7623 90.6965 17.3248C90.6965 18.0514 90.4641 18.6295 89.9992 19.0592C89.5344 19.4889 88.9191 19.7037 88.1535 19.7037C87.6379 19.7037 87.1613 19.5924 86.7238 19.3698C86.2863 19.1471 85.9562 18.8522 85.7336 18.485C85.5109 18.1178 85.3996 17.694 85.3996 17.2135H85.716C85.716 17.8385 85.9465 18.358 86.4074 18.7721C86.8684 19.1823 87.4504 19.3873 88.1535 19.3873C88.8527 19.3873 89.3977 19.2076 89.7883 18.8483C90.1828 18.485 90.3801 17.985 90.3801 17.3483C90.3801 16.7194 90.1691 16.2389 89.7473 15.9069C89.3293 15.5748 88.716 15.4069 87.9074 15.403H87.2394V15.0748Z" fill="#333333"/>
<circle cx="53.9969" cy="15.0865" r="5" fill="#0E38B1"/>
<circle cx="54.0305" cy="14.9783" r="2.5" fill="white"/>
</svg>
