<svg width="104" height="29" viewBox="0 0 104 29" fill="none" xmlns="http://www.w3.org/2000/svg">
<path d="M11.9991 4.58643H91.1291C94.4428 4.58643 97.1291 7.27272 97.1291 10.5864V19.5864C97.1291 22.9001 94.4428 25.5864 91.1291 25.5864H5.99908V10.5864C5.99908 7.27272 8.68538 4.58643 11.9991 4.58643Z" stroke="#0E38B1" stroke-width="2"/>
<path d="M18.8219 15.5142C18.8219 16.311 18.693 17.0044 18.4352 17.5942C18.1773 18.1802 17.8199 18.6509 17.3629 19.0063L18.7809 20.1196L17.6617 21.1099L15.8453 19.6509C15.6383 19.686 15.4234 19.7036 15.2008 19.7036C14.4937 19.7036 13.8629 19.5337 13.3082 19.1938C12.7535 18.854 12.3238 18.3696 12.0191 17.7407C11.7144 17.1079 11.5602 16.3813 11.5562 15.561V15.1392C11.5562 14.2993 11.7066 13.561 12.0074 12.9243C12.3121 12.2837 12.7398 11.7935 13.2906 11.4536C13.8453 11.1099 14.4781 10.938 15.1891 10.938C15.9 10.938 16.5309 11.1099 17.0816 11.4536C17.6363 11.7935 18.0641 12.2837 18.3648 12.9243C18.6695 13.561 18.8219 14.2974 18.8219 15.1333V15.5142ZM17.0406 15.1274C17.0406 14.2329 16.8805 13.5532 16.5602 13.0884C16.2398 12.6235 15.7828 12.3911 15.1891 12.3911C14.5992 12.3911 14.1441 12.6216 13.8238 13.0825C13.5035 13.5396 13.3414 14.2114 13.3375 15.0981V15.5142C13.3375 16.3853 13.4977 17.061 13.818 17.5415C14.1383 18.022 14.5992 18.2622 15.2008 18.2622C15.7906 18.2622 16.2437 18.0317 16.5602 17.5708C16.8766 17.106 17.0367 16.4302 17.0406 15.5435V15.1274ZM23.3087 18.1743H27.0412V19.5864H21.5509V11.0552H23.3087V18.1743ZM34.4284 17.8286H31.3464L30.7605 19.5864H28.8913L32.0671 11.0552H33.696L36.8894 19.5864H35.0202L34.4284 17.8286ZM31.821 16.4048H33.9538L32.8816 13.2114L31.821 16.4048ZM39.1262 19.5864V11.0552H42.1145C43.1497 11.0552 43.9348 11.2544 44.47 11.6528C45.0051 12.0474 45.2727 12.6274 45.2727 13.3931C45.2727 13.811 45.1653 14.1802 44.9505 14.5005C44.7356 14.8169 44.4368 15.0493 44.054 15.1978C44.4915 15.3071 44.8352 15.5278 45.0852 15.8599C45.3391 16.1919 45.4661 16.5981 45.4661 17.0786C45.4661 17.8989 45.2044 18.52 44.6809 18.9419C44.1575 19.3638 43.4114 19.5786 42.4426 19.5864H39.1262ZM40.8841 15.8716V18.1743H42.3899C42.804 18.1743 43.1262 18.0767 43.3567 17.8813C43.5911 17.6821 43.7083 17.4087 43.7083 17.061C43.7083 16.2798 43.304 15.8833 42.4954 15.8716H40.8841ZM40.8841 14.6294H42.1848C43.0716 14.6138 43.5149 14.2603 43.5149 13.5688C43.5149 13.1821 43.4016 12.9048 43.1751 12.7368C42.9524 12.5649 42.5989 12.479 42.1145 12.479H40.8841V14.6294ZM64.6148 19.5864H64.2984V11.4536L61.8491 12.3735V12.0278L64.5503 11.0317H64.6148V19.5864ZM74.668 11.2544L70.9122 19.5864H70.5899L74.3048 11.3716H69.2188V11.0552H74.668V11.2544ZM82.6178 16.106C82.6178 17.2505 82.3951 18.1372 81.9498 18.7661C81.5045 19.3911 80.8795 19.7036 80.0748 19.7036C79.2741 19.7036 78.6471 19.3872 78.194 18.7544C77.7409 18.1216 77.5143 17.231 77.5143 16.0825V14.5356C77.5143 13.4028 77.7369 12.52 78.1823 11.8872C78.6315 11.2505 79.2584 10.9321 80.0631 10.9321C80.8717 10.9321 81.4987 11.2505 81.944 11.8872C82.3932 12.52 82.6178 13.4106 82.6178 14.5591V16.106ZM82.3014 14.5356C82.3014 13.5005 82.1061 12.6938 81.7155 12.1157C81.3287 11.5376 80.778 11.2485 80.0631 11.2485C79.3444 11.2485 78.7916 11.5396 78.4049 12.1216C78.0221 12.6997 77.8307 13.5142 77.8307 14.5649V16.0942C77.8307 17.1255 78.028 17.9321 78.4225 18.5142C78.817 19.0962 79.3678 19.3872 80.0748 19.3872C80.7858 19.3872 81.3346 19.0962 81.7213 18.5142C82.108 17.9321 82.3014 17.1157 82.3014 16.0649V14.5356ZM87.2394 15.0747H87.9543C88.6223 15.063 89.1613 14.8853 89.5715 14.5415C89.9855 14.1978 90.1926 13.7603 90.1926 13.229C90.1926 12.6235 90.007 12.1431 89.6359 11.7876C89.2687 11.4321 88.757 11.2544 88.1008 11.2544C87.4602 11.2544 86.9328 11.4419 86.5187 11.8169C86.1047 12.1919 85.8977 12.6841 85.8977 13.2935H85.5812C85.5812 12.8403 85.6906 12.4341 85.9094 12.0747C86.1281 11.7153 86.4309 11.436 86.8176 11.2368C87.2043 11.0376 87.632 10.938 88.1008 10.938C88.8391 10.938 89.425 11.147 89.8586 11.5649C90.2922 11.979 90.509 12.5415 90.509 13.2524C90.509 13.7056 90.3644 14.1099 90.0754 14.4653C89.7902 14.8208 89.4035 15.0728 88.9152 15.2212C89.4738 15.3501 89.9094 15.5923 90.2219 15.9478C90.5383 16.3032 90.6965 16.7622 90.6965 17.3247C90.6965 18.0513 90.4641 18.6294 89.9992 19.0591C89.5344 19.4888 88.9191 19.7036 88.1535 19.7036C87.6379 19.7036 87.1613 19.5923 86.7238 19.3696C86.2863 19.147 85.9562 18.8521 85.7336 18.4849C85.5109 18.1177 85.3996 17.6938 85.3996 17.2134H85.716C85.716 17.8384 85.9465 18.3579 86.4074 18.772C86.8684 19.1821 87.4504 19.3872 88.1535 19.3872C88.8527 19.3872 89.3977 19.2075 89.7883 18.8481C90.1828 18.4849 90.3801 17.9849 90.3801 17.3481C90.3801 16.7192 90.1691 16.2388 89.7473 15.9067C89.3293 15.5747 88.716 15.4067 87.9074 15.4028H87.2394V15.0747Z" fill="#333333"/>
<circle cx="54.0305" cy="15.0864" r="2.5" fill="#3A3A3A"/>
</svg>
