<svg width="26" height="14" viewBox="0 0 26 14" fill="none" xmlns="http://www.w3.org/2000/svg">
<path fill-rule="evenodd" clip-rule="evenodd" d="M1.24123 11.619C0.899572 11.9606 0.899572 12.5146 1.24123 12.8562C1.58288 13.1979 2.13681 13.1979 2.47847 12.8562L12.9949 2.33976L23.5115 12.8563C23.8532 13.198 24.4071 13.198 24.7488 12.8563C25.0904 12.5147 25.0904 11.9608 24.7488 11.6191L13.6223 0.492623C13.6194 0.48968 13.6165 0.486753 13.6136 0.48384C13.272 0.142186 12.718 0.142187 12.3764 0.483841L1.24123 11.619Z" fill="#0E38B1"/>
<path fill-rule="evenodd" clip-rule="evenodd" d="M7.42633 11.6188C7.08461 11.9605 7.08461 12.5146 7.42633 12.8563C7.76805 13.198 8.32209 13.198 8.66381 12.8563L12.995 8.52513L17.3261 12.8563C17.6679 13.198 18.2219 13.198 18.5636 12.8563C18.9053 12.5146 18.9053 11.9605 18.5636 11.6188L13.6193 6.67451C13.6175 6.67263 13.6156 6.67076 13.6137 6.66889C13.31 6.36521 12.8387 6.3314 12.4977 6.56747C12.4549 6.59705 12.4143 6.63086 12.3762 6.66891M7.42633 11.6188L12.3738 6.67132L7.42633 11.6188Z" fill="#0E38B1"/>
</svg>
