<svg width="21" height="21" viewBox="0 0 21 21" fill="none" xmlns="http://www.w3.org/2000/svg">
<path fill-rule="evenodd" clip-rule="evenodd" d="M17.6545 1.33753H2.65684C2.32537 1.33753 2.00748 1.46923 1.77309 1.70365C1.53871 1.93807 1.40703 2.25602 1.40703 2.58754V17.5876C1.40703 17.9192 1.53871 18.2371 1.77309 18.4715C2.00748 18.7059 2.32537 18.8376 2.65684 18.8376H17.6545C17.986 18.8376 18.3039 18.7059 18.5382 18.4715C18.7726 18.2371 18.9043 17.9192 18.9043 17.5876V2.58754C18.9043 2.25602 18.7726 1.93807 18.5382 1.70365C18.3039 1.46923 17.986 1.33753 17.6545 1.33753ZM2.65684 0.0875244C1.9939 0.0875244 1.35811 0.350918 0.889346 0.819762C0.420578 1.28861 0.157227 1.92449 0.157227 2.58754L0.157227 17.5876C0.157227 18.2507 0.420578 18.8866 0.889346 19.3554C1.35811 19.8243 1.9939 20.0876 2.65684 20.0876H17.6545C18.3174 20.0876 18.9532 19.8243 19.422 19.3554C19.8908 18.8866 20.1541 18.2507 20.1541 17.5876V2.58754C20.1541 1.92449 19.8908 1.28861 19.422 0.819762C18.9532 0.350918 18.3174 0.0875244 17.6545 0.0875244L2.65684 0.0875244Z" fill="#269D18"/>
<path fill-rule="evenodd" clip-rule="evenodd" d="M12.9031 6.35515C13.0402 6.18433 13.2254 6.0882 13.4185 6.08753C13.6116 6.08686 13.7972 6.18171 13.9351 6.35158C14.073 6.52144 14.1522 6.75268 14.1555 6.99528C14.1588 7.23789 14.0859 7.47238 13.9527 7.64805L10.0404 13.7924C9.97313 13.8834 9.89197 13.9564 9.80176 14.0071C9.71154 14.0578 9.61412 14.0851 9.51531 14.0874C9.4165 14.0897 9.31834 14.0669 9.22669 14.0205C9.13505 13.974 9.0518 13.9048 8.98192 13.817L6.38971 10.5589C6.31749 10.4744 6.25957 10.3724 6.21939 10.2591C6.17922 10.1458 6.15762 10.0236 6.15588 9.89956C6.15413 9.77556 6.17229 9.65239 6.20926 9.5374C6.24623 9.42241 6.30125 9.31795 6.37105 9.23026C6.44085 9.14256 6.52399 9.07343 6.61551 9.02698C6.70704 8.98054 6.80507 8.95773 6.90376 8.95991C7.00245 8.9621 7.09979 8.98924 7.18995 9.03972C7.28011 9.09019 7.36126 9.16297 7.42855 9.2537L9.48076 11.8309L12.8845 6.38224C12.8905 6.37271 12.8971 6.36366 12.9041 6.35515H12.9031Z" fill="#269D18"/>
</svg>
