<svg width="21" height="21" viewBox="0 0 21 21" fill="none" xmlns="http://www.w3.org/2000/svg">
<path fill-rule="evenodd" clip-rule="evenodd" d="M17.7629 1.60999H2.76524C2.43377 1.60999 2.11587 1.74168 1.88149 1.9761C1.64711 2.21052 1.51543 2.52846 1.51543 2.85999V17.86C1.51543 18.1915 1.64711 18.5094 1.88149 18.7439C2.11587 18.9783 2.43377 19.11 2.76524 19.11H17.7629C18.0944 19.11 18.4123 18.9783 18.6466 18.7439C18.881 18.5094 19.0127 18.1915 19.0127 17.86V2.85999C19.0127 2.52846 18.881 2.21052 18.6466 1.9761C18.4123 1.74168 18.0944 1.60999 17.7629 1.60999ZM2.76524 0.359985C2.1023 0.359985 1.46651 0.623378 0.997744 1.09222C0.528976 1.56106 0.265625 2.19694 0.265625 2.85999L0.265625 17.86C0.265625 18.523 0.528976 19.1589 0.997744 19.6278C1.46651 20.0966 2.1023 20.36 2.76524 20.36H17.7629C18.4258 20.36 19.0616 20.0966 19.5304 19.6278C19.9992 19.1589 20.2625 18.523 20.2625 17.86V2.85999C20.2625 2.19694 19.9992 1.56106 19.5304 1.09222C19.0616 0.623378 18.4258 0.359985 17.7629 0.359985L2.76524 0.359985Z" fill="#D22A2B"/>
<path d="M12.5862 6.64921L10.2641 8.97136C9.49013 8.19765 8.7159 7.42318 7.94179 6.64921C7.04628 5.75372 5.65817 7.14229 6.55293 8.03803C7.32717 8.8115 8.10165 9.58609 8.87501 10.3601C8.1013 11.1344 7.32727 11.9084 6.55293 12.6821C5.65817 13.5773 7.0464 14.9655 7.94179 14.0709C8.71577 13.2967 9.49001 12.5223 10.264 11.7486L12.5861 14.0709C13.4816 14.9661 14.8701 13.5775 13.9749 12.6821C13.2007 11.9079 12.4267 11.1339 11.6522 10.3598C12.4266 9.58559 13.2006 8.81137 13.9749 8.03728C14.8702 7.14229 13.4817 5.75372 12.5861 6.64971" fill="#D22A2B"/>
</svg>
