<svg width="31" height="30" viewBox="0 0 31 30" fill="none" xmlns="http://www.w3.org/2000/svg">
<path d="M15.4612 -0.00012207C12.4945 -0.00012207 9.5944 0.879612 7.12766 2.52783C4.66093 4.17605 2.73834 6.51873 1.60303 9.25962C0.467711 12.0005 0.170661 15.0165 0.74944 17.9262C1.32822 20.8359 2.75683 23.5087 4.85462 25.6065C6.9524 27.7043 9.62515 29.1329 12.5349 29.7117C15.4446 30.2904 18.4606 29.9934 21.2015 28.8581C23.9424 27.7228 26.285 25.8002 27.9333 23.3334C29.5815 20.8667 30.4612 17.9666 30.4612 14.9999C30.4612 13.03 30.0732 11.0795 29.3194 9.25962C28.5656 7.43974 27.4607 5.78615 26.0678 4.39328C24.6749 3.0004 23.0214 1.89551 21.2015 1.14168C19.3816 0.387864 17.431 -0.00012207 15.4612 -0.00012207ZM15.4612 26.9999C13.0878 26.9999 10.7678 26.2961 8.79437 24.9775C6.82098 23.6589 5.28292 21.7848 4.37466 19.5921C3.46641 17.3994 3.22877 14.9866 3.6918 12.6588C4.15482 10.331 5.29771 8.19283 6.97594 6.5146C8.65417 4.83637 10.7924 3.69348 13.1201 3.23045C15.4479 2.76743 17.8607 3.00507 20.0534 3.91332C22.2461 4.82157 24.1203 6.35964 25.4388 8.33303C26.7574 10.3064 27.4612 12.6265 27.4612 14.9999C27.4612 18.1825 26.1969 21.2347 23.9465 23.4852C21.6961 25.7356 18.6438 26.9999 15.4612 26.9999Z" fill="#8AA1DC"/>
<path d="M15.4612 5.99986C14.0688 5.99986 12.7335 6.55298 11.7489 7.53755C10.7643 8.52211 10.2112 9.85747 10.2112 11.2499C10.2112 11.6477 10.3692 12.0292 10.6506 12.3105C10.9319 12.5918 11.3134 12.7499 11.7112 12.7499C12.109 12.7499 12.4906 12.5918 12.7719 12.3105C13.0532 12.0292 13.2112 11.6477 13.2112 11.2499C13.2112 10.8048 13.3432 10.3698 13.5904 9.99982C13.8376 9.62981 14.189 9.34142 14.6002 9.17113C15.0113 9.00083 15.4637 8.95627 15.9002 9.04309C16.3366 9.12991 16.7375 9.3442 17.0522 9.65887C17.3669 9.97353 17.5812 10.3744 17.668 10.8109C17.7548 11.2474 17.7102 11.6998 17.5399 12.1109C17.3696 12.522 17.0813 12.8734 16.7112 13.1207C16.3412 13.3679 15.9062 13.4999 15.4612 13.4999C15.0634 13.4999 14.6819 13.6579 14.4006 13.9392C14.1192 14.2205 13.9612 14.602 13.9612 14.9999V17.9999C13.9612 18.3977 14.1192 18.7792 14.4006 19.0605C14.6819 19.3418 15.0634 19.4999 15.4612 19.4999C15.859 19.4999 16.2406 19.3418 16.5219 19.0605C16.8032 18.7792 16.9612 18.3977 16.9612 17.9999V16.2599C18.1734 15.9059 19.2167 15.1256 19.8989 14.063C20.5812 13.0004 20.8563 11.727 20.6736 10.4775C20.491 9.22795 19.8628 8.08659 18.9049 7.26374C17.947 6.44089 16.724 5.99202 15.4612 5.99986Z" fill="#8AA1DC"/>
<path d="M15.4612 23.9999C16.2896 23.9999 16.9612 23.3283 16.9612 22.4999C16.9612 21.6715 16.2896 20.9999 15.4612 20.9999C14.6328 20.9999 13.9612 21.6715 13.9612 22.4999C13.9612 23.3283 14.6328 23.9999 15.4612 23.9999Z" fill="#8AA1DC"/>
</svg>
