<svg width="55" height="61" viewBox="0 0 55 61" fill="none" xmlns="http://www.w3.org/2000/svg">
<path d="M48.4994 18.8572V15.8572H42.4994V6.85718H6.49939V48.8572H21.4994V60.8572H31.2494H30.4994C28.9081 60.8572 27.382 60.225 26.2568 59.0998C25.1315 57.9746 24.4994 56.4485 24.4994 54.8572V24.8572C24.4994 23.2659 25.1315 21.7398 26.2568 20.6145C27.382 19.4893 28.9081 18.8572 30.4994 18.8572H48.4994ZM31.2494 60.8572H6.49939C4.90809 60.8572 3.38197 60.225 2.25675 59.0998C1.13153 57.9746 0.49939 56.4485 0.49939 54.8572V6.85718C0.49939 3.55718 3.19939 0.857178 6.49939 0.857178H42.4994C44.0907 0.857178 45.6168 1.48932 46.742 2.61454C47.8672 3.73976 48.4994 5.26588 48.4994 6.85718V18.8572C50.0907 18.8572 51.6168 19.4893 52.742 20.6145C53.8672 21.7398 54.4994 23.2659 54.4994 24.8572V54.8572C54.4994 56.4485 53.8672 57.9746 52.742 59.0998C51.6168 60.225 50.0907 60.8572 48.4994 60.8572H31.2494ZM30.4994 24.8572V48.8572H48.4994V24.8572H30.4994ZM39.4994 57.8572C40.295 57.8572 41.0581 57.5411 41.6207 56.9785C42.1833 56.4159 42.4994 55.6528 42.4994 54.8572C42.4994 54.0615 42.1833 53.2985 41.6207 52.7359C41.0581 52.1732 40.295 51.8572 39.4994 51.8572C38.7037 51.8572 37.9407 52.1732 37.3781 52.7359C36.8155 53.2985 36.4994 54.0615 36.4994 54.8572C36.4994 55.6528 36.8155 56.4159 37.3781 56.9785C37.9407 57.5411 38.7037 57.8572 39.4994 57.8572Z" fill="#0E38B1"/>
</svg>
