<svg width="76" height="61" viewBox="0 0 76 61" fill="none" xmlns="http://www.w3.org/2000/svg">
<path d="M75.7764 0.34314L72.3211 1.3349L10.4817 19.7657H0.191284V40.9232H10.4844L15.7969 42.4942L15.7159 42.7401V42.8247C13.9829 48.4103 17.1925 54.62 23.1395 56.3761C23.1665 56.384 23.1989 56.3682 23.2205 56.3761C28.9514 58.0819 35.2952 54.9744 37.0579 49.1032L37.1389 48.8546L72.3211 59.354L75.7764 60.3431V0.34314ZM70.3775 7.45206V53.2369L11.745 35.7132L11.413 35.6338H5.59022V25.0551H11.4103L11.7477 24.9757L70.3775 7.44941V7.45206ZM20.9421 44.0625L31.9937 47.289L31.9128 47.5349V47.6143C30.9841 50.7085 27.6314 52.2213 24.743 51.3353C21.5846 50.4282 19.9595 47.2255 20.8611 44.393V44.3137L20.9421 44.0625Z" fill="#0E38B1"/>
</svg>
