<svg width="70" height="60" viewBox="0 0 70 60" fill="none" xmlns="http://www.w3.org/2000/svg">
<path fill-rule="evenodd" clip-rule="evenodd" d="M61.086 4.28559H8.88179C7.72801 4.28559 6.62148 4.73712 5.80563 5.54085C4.98978 6.34458 4.53144 7.43466 4.53144 8.57131V51.4284C4.53144 52.5651 4.98978 53.6552 5.80563 54.4589C6.62148 55.2626 7.72801 55.7142 8.88179 55.7142H61.086C62.2398 55.7142 63.3463 55.2626 64.1621 54.4589C64.978 53.6552 65.4363 52.5651 65.4363 51.4284V8.57131C65.4363 7.43466 64.978 6.34458 64.1621 5.54085C63.3463 4.73712 62.2398 4.28559 61.086 4.28559ZM8.88179 -0.00012207C6.57422 -0.00012207 4.36116 0.902937 2.72947 2.51039C1.09777 4.11785 0.181091 6.29802 0.181091 8.57131L0.181091 51.4284C0.181091 53.7017 1.09777 55.8819 2.72947 57.4894C4.36116 59.0968 6.57422 59.9999 8.88179 59.9999H61.086C63.3936 59.9999 65.6066 59.0968 67.2383 57.4894C68.87 55.8819 69.7867 53.7017 69.7867 51.4284V8.57131C69.7867 6.29802 68.87 4.11785 67.2383 2.51039C65.6066 0.902937 63.3936 -0.00012207 61.086 -0.00012207H8.88179Z" fill="#0E38B1"/>
<path fill-rule="evenodd" clip-rule="evenodd" d="M65.4363 21.4284H4.53137V17.1426H65.4363V21.4284Z" fill="#0E38B1"/>
<path d="M13.2322 10.7139C13.2322 11.2822 13.003 11.8273 12.5951 12.2291C12.1872 12.631 11.6339 12.8568 11.057 12.8568C10.4801 12.8568 9.92685 12.631 9.51893 12.2291C9.11101 11.8273 8.88184 11.2822 8.88184 10.7139C8.88184 10.1456 9.11101 9.60054 9.51893 9.19867C9.92685 8.79681 10.4801 8.57104 11.057 8.57104C11.6339 8.57104 12.1872 8.79681 12.5951 9.19867C13.003 9.60054 13.2322 10.1456 13.2322 10.7139ZM19.7577 10.7139C19.7577 11.2822 19.5285 11.8273 19.1206 12.2291C18.7127 12.631 18.1594 12.8568 17.5825 12.8568C17.0056 12.8568 16.4524 12.631 16.0444 12.2291C15.6365 11.8273 15.4073 11.2822 15.4073 10.7139C15.4073 10.1456 15.6365 9.60054 16.0444 9.19867C16.4524 8.79681 17.0056 8.57104 17.5825 8.57104C18.1594 8.57104 18.7127 8.79681 19.1206 9.19867C19.5285 9.60054 19.7577 10.1456 19.7577 10.7139ZM26.2832 10.7139C26.2832 11.2822 26.054 11.8273 25.6461 12.2291C25.2382 12.631 24.6849 12.8568 24.108 12.8568C23.5311 12.8568 22.9779 12.631 22.57 12.2291C22.162 11.8273 21.9329 11.2822 21.9329 10.7139C21.9329 10.1456 22.162 9.60054 22.57 9.19867C22.9779 8.79681 23.5311 8.57104 24.108 8.57104C24.6849 8.57104 25.2382 8.79681 25.6461 9.19867C26.054 9.60054 26.2832 10.1456 26.2832 10.7139Z" fill="#0E38B1"/>
</svg>
