<svg width="64" height="61" viewBox="0 0 64 61" fill="none" xmlns="http://www.w3.org/2000/svg">
<path d="M50.7781 11.477C49.7279 8.96426 47.4617 5.70459 45.1221 4.2553C39.6811 0.867025 32.765 0.214102 26.5962 1.41113C16.9059 3.29076 7.82614 9.63697 3.27892 18.58C0.0602143 24.9114 -0.604041 34.5618 3.68431 40.636C6.48298 44.598 12.0363 46.0968 16.4419 44.237C19.436 42.9756 21.292 40.1661 23.8806 38.326C27.241 35.932 30.8846 36.6096 34.7822 36.4563C45.972 36.0259 55.1201 21.9189 50.7781 11.477ZM34.3231 27.8199C33.4342 28.1661 32.2668 28.3689 31.3095 28.2255C30.3424 28.0722 29.3167 27.3549 28.8039 26.5042C27.0212 23.5759 29.981 20.1876 32.7162 19.4506C34.074 19.0846 36.0668 19.3121 37.1462 20.2569C39.9448 22.7053 36.8922 26.8108 34.3231 27.8199Z" fill="#0831A7"/>
<path fill-rule="evenodd" clip-rule="evenodd" d="M24.1639 7.28739C23.2407 7.36653 22.2541 7.7573 21.4873 8.38056C20.823 8.92962 20.3248 9.65181 20.1734 10.5125C19.9243 11.9865 21.1552 13.3518 22.6497 13.4161C24.5741 13.5002 26.8795 12.4664 26.9723 10.3394C27.0407 8.65756 25.8489 7.13899 24.1639 7.28739ZM13.6481 22.0771C11.6699 20.3853 8.8908 21.8841 8.30958 24.2535C8.09467 25.1241 8.15816 26.059 8.58309 26.8554C9.34992 28.2948 11.3232 28.8142 12.6517 28.0376C14.6493 26.8702 15.5334 23.6847 13.6481 22.0771ZM14.288 32.336C15.3967 34.4629 14.6592 37.7423 11.9582 37.9698C9.25724 38.1974 7.74801 34.9773 8.44646 32.6229C9.1449 30.2783 12.0071 29.8925 13.6189 31.4357C13.8924 31.6979 14.117 31.9996 14.288 32.336ZM14.962 19.5595C16.5298 19.7574 18.2246 18.5751 18.9524 17.2198C19.3578 16.4729 19.4897 15.632 19.1526 14.8455C17.9218 11.9865 14.2489 12.9164 13.0767 15.2412C12.2219 16.9379 12.9936 19.3122 14.962 19.5595Z" fill="#EFF7FF"/>
<path fill-rule="evenodd" clip-rule="evenodd" d="M50.7069 22.2927C49.282 24.5079 47.8562 26.7243 46.1562 28.704C45.9901 28.8969 45.8631 29.0997 45.8094 29.3075C45.6477 29.9544 47.2369 30.3144 48.0995 30.5098C48.3053 30.5564 48.4698 30.5937 48.5592 30.6232C49.204 30.8409 49.5361 31.1624 49.8975 31.7708C49.9952 31.9291 51.5826 33.9324 51.7584 33.2201C51.8637 32.7936 52.0671 32.4159 52.2729 32.0339C52.4013 31.7955 52.5306 31.5555 52.6376 31.3009C53.082 30.2325 53.5705 29.1838 54.0882 28.1451C55.0662 26.1861 56.1394 24.2807 57.2125 22.3757C57.5971 21.6928 57.9817 21.0101 58.3619 20.3249C58.8552 19.4395 59.329 18.5392 59.793 17.639C60.0426 17.1576 60.3021 16.6727 60.5635 16.184C61.5808 14.2828 62.6283 12.3251 63.2461 10.2985C63.4415 9.66541 63.4464 8.64151 62.8554 8.21612C62.5867 8.02321 62.2839 7.87976 61.9518 7.87482C60.2441 7.84394 59.026 9.76481 58.1415 11.1596C58.0343 11.3286 57.932 11.4899 57.8344 11.639C57.5483 12.0766 57.2628 12.5163 56.9768 12.9568C55.837 14.7125 54.689 16.4808 53.463 18.1732C52.4993 19.5064 51.6032 20.8993 50.7069 22.2927ZM33.5372 49.4257C33.5127 49.2327 33.4639 49.0794 33.4102 48.9607C33.1804 48.4717 32.7116 48.5265 32.2019 48.5861C31.8556 48.6266 31.4904 48.6692 31.1683 48.5452C30.3478 48.2138 30.3233 47.3382 30.4357 46.5221C30.4581 46.3667 30.5144 46.1822 30.5738 45.9878C30.6959 45.5881 30.8308 45.1465 30.7092 44.8304C30.6828 44.8424 30.6565 44.8543 30.6303 44.8662C30.0852 45.1135 29.5908 45.3378 29.1853 45.8098C28.9519 46.08 28.786 46.4583 28.6362 46.8001C28.6104 46.8588 28.5852 46.9164 28.5601 46.9722C28.1889 47.7834 27.9398 48.6441 27.7152 49.5048C27.4748 50.4386 27.5434 51.4358 27.6094 52.3972C27.6172 52.5103 27.6249 52.6229 27.6321 52.7349C27.643 52.9086 27.663 53.0968 27.6839 53.2925C27.7567 53.9771 27.8394 54.7536 27.5735 55.3268C27.1779 56.1974 26.4746 56.4299 25.615 56.6228C24.853 56.791 24.2816 57.1075 24.1595 57.9534C24.0227 58.9377 24.5844 59.4917 25.488 59.7935C26.4507 60.1133 27.4674 60.2062 28.4856 60.2993C29.4045 60.3833 30.3246 60.4674 31.2074 60.7185C32.566 61.1045 33.8109 60.6134 35.0638 60.1192C35.4323 59.9738 35.8016 59.8281 36.1747 59.7044C36.4584 59.6106 36.7498 59.5249 37.0431 59.4386C38.0167 59.1524 39.0113 58.8599 39.8183 58.2403C40.0686 58.0471 40.2571 57.8061 40.4471 57.5632C40.5684 57.4081 40.6903 57.2522 40.8293 57.1075C41.3177 56.603 41.7231 56.1034 42.0455 55.4752C42.1455 55.2794 42.258 55.0853 42.371 54.8904C42.5891 54.5142 42.8091 54.1348 42.9442 53.734C43.2959 52.6804 42.5144 53.0119 41.9576 53.3828C41.0589 53.9814 39.281 54.1149 38.353 53.5411C37.8957 53.2581 37.94 52.9314 37.995 52.5264C38.014 52.3864 38.0343 52.2371 38.0355 52.077C38.0355 50.8003 37.008 50.8274 36.0333 50.853C35.8977 50.8566 35.7632 50.8601 35.6325 50.8601C34.5775 50.8601 33.6886 50.6029 33.5372 49.4257Z" fill="#0831A7"/>
<path fill-rule="evenodd" clip-rule="evenodd" d="M49.5661 29.4784C50.3578 29.9702 51.2559 30.5282 51.7212 31.5148C52.5049 33.1859 51.5228 34.4984 50.8055 35.4571L50.7981 35.467C50.5539 35.7836 50.3243 36.0853 50.168 36.3771C49.4989 37.5989 48.9811 38.88 48.4341 40.2353L48.4341 40.2354C48.185 40.8488 47.9359 41.4621 47.6722 42.0704C47.5592 42.3328 47.4576 42.6295 47.358 42.945C47.6564 43.3612 47.8262 43.7781 47.9751 44.1528C48.0874 44.4298 48.1851 44.6672 48.3219 44.87C48.6638 45.3795 48.527 46.072 48.0288 46.4133C47.8335 46.537 47.6185 46.6013 47.4085 46.6013C47.0569 46.6013 46.715 46.4281 46.4952 46.1116C46.4159 45.9919 46.3463 45.8728 46.2837 45.7552C46.1542 45.9748 46.0094 46.1844 45.8455 46.3788L45.7722 46.4678L45.768 46.473C45.5864 46.6967 45.2542 47.1059 44.5951 47.1059C44.429 47.1059 44.2434 47.0762 44.0334 47.0169C43.4267 46.8462 42.9577 46.4015 42.5796 46.043L42.5632 46.0276C42.5237 45.9919 42.485 45.9557 42.4469 45.9201C42.3531 45.8325 42.2628 45.7482 42.1725 45.6813L41.6841 45.3104C40.8586 44.6723 40.0821 44.0737 39.2273 43.6187C38.9684 43.4802 38.6998 43.3516 38.4361 43.2279C37.6937 42.8767 36.9268 42.5107 36.2284 41.9122C35.5886 41.3631 35.486 40.8042 35.5104 40.4332C35.5611 39.6758 36.1235 39.2109 36.6253 38.8718C36.1444 38.7511 35.7889 38.3125 35.7889 37.7918C35.7889 37.1784 36.2822 36.6789 36.8928 36.6789C37.5567 36.6789 38.268 36.8007 39.015 37.04C40.2946 35.8558 41.239 34.5746 42.2067 33.0482C42.3543 32.809 42.5128 32.5256 42.6854 32.2171C42.7127 32.1683 42.7404 32.1188 42.7684 32.0688L42.7812 32.0458C43.5262 30.7044 44.4462 29.0479 45.7429 28.4183C46.6123 27.9979 47.6917 28.2106 48.9518 29.0861C49.0958 29.1859 49.2515 29.2826 49.4098 29.381C49.4556 29.4095 49.5017 29.4381 49.5477 29.467L49.5661 29.4784Z" fill="#0831A7"/>
</svg>
