<svg width="81" height="63" viewBox="0 0 81 63" fill="none" xmlns="http://www.w3.org/2000/svg">
<mask id="path-1-outside-1" maskUnits="userSpaceOnUse" x="-0.730728" y="11.6042" width="52" height="51" fill="black">
<rect fill="white" x="-0.730728" y="11.6042" width="52" height="51"/>
<path d="M8.12144 42.0691C8.44808 42.1479 8.89166 42.5546 9.01972 42.9257L9.6693 44.5077C9.81592 44.8113 9.78808 45.413 9.61362 45.7016L7.02086 49.9827C6.46593 50.9011 6.581 52.2019 7.32709 53.0454L9.52268 55.2609C10.2873 55.9469 11.6366 56.0706 12.5163 55.5326L16.7553 52.9142C17.0207 52.7492 17.5905 52.6911 17.9895 52.8804L19.5541 53.5327C19.8696 53.6433 20.2723 54.0894 20.3503 54.4193L21.514 59.3001C21.7608 60.3347 22.7389 61.1857 23.7894 61.2832C23.7894 61.2832 24.4334 61.3431 25.3985 61.3431C26.3636 61.3431 27.0076 61.2832 27.0094 61.2832C27.5412 61.2198 28.042 60.997 28.4472 60.6436C28.8524 60.2901 29.1435 59.8222 29.283 59.3001L30.4485 54.4193C30.5265 54.0913 30.9273 53.6433 31.2948 53.514L32.8612 52.8579C33.1378 52.7211 33.7781 52.7492 34.0435 52.9142L38.2825 55.5326C38.6555 55.7632 39.1009 55.885 39.5742 55.885C40.2145 55.885 40.8344 55.6582 41.3151 55.2252L43.5088 53.0079C43.8566 52.5933 44.0691 52.0804 44.1173 51.5392C44.1654 50.9981 44.0469 50.4551 43.7779 49.9845L41.1852 45.7035C41.0107 45.4149 40.9829 44.8132 41.1518 44.4571L41.7976 42.877C41.9071 42.5583 42.3489 42.1516 42.6755 42.0729L47.5084 40.8977C48.0254 40.7563 48.4887 40.4618 48.8386 40.0523C49.1885 39.6428 49.4091 39.1369 49.472 38.5997C49.472 38.5997 49.5314 37.9493 49.5314 36.9746C49.5314 36 49.472 35.3496 49.472 35.3477C49.4089 34.8106 49.1882 34.3048 48.8383 33.8953C48.4884 33.4858 48.0253 33.1914 47.5084 33.0497L42.6774 31.8764C42.3507 31.7977 41.9071 31.3909 41.7791 31.0198L41.1295 29.4378C40.9829 29.1342 41.0107 28.5325 41.1852 28.2439L43.7779 23.9629C44.3329 23.0444 44.2178 21.7436 43.4717 20.9002L41.2761 18.6847C40.5096 17.9968 39.1585 17.8731 38.2825 18.4129L34.0435 21.0314C33.7781 21.1944 33.2064 21.2563 32.8093 21.0651L31.2447 20.4128C30.9292 20.3022 30.5283 19.8561 30.4504 19.5262L29.2848 14.6454C29.1448 14.1233 28.8533 13.6554 28.4478 13.302C28.0423 12.9486 27.5414 12.7258 27.0094 12.6624C27.0057 12.6642 26.3617 12.6042 25.3966 12.6042C24.4315 12.6042 23.7875 12.6642 23.7857 12.6642C23.2538 12.728 22.753 12.9508 22.3475 13.3042C21.9421 13.6576 21.6505 14.1253 21.5103 14.6473L20.3484 19.5244C20.2705 19.8543 19.8677 20.3022 19.5003 20.4316L17.9338 21.0876C17.6554 21.2244 17.017 21.1944 16.7516 21.0314L12.5145 18.4129C11.6366 17.8731 10.3152 17.9668 9.48185 18.7203L7.28812 20.9376C6.94033 21.3522 6.72783 21.8651 6.67966 22.4063C6.63149 22.9474 6.75001 23.4904 7.019 23.961L9.61176 28.242C9.78622 28.5307 9.81406 29.1323 9.64517 29.4885L8.9993 31.0685C8.8898 31.3872 8.44808 31.7939 8.12144 31.8726L3.28854 33.0479C2.77155 33.1893 2.30828 33.4837 1.95835 33.8932C1.60841 34.3027 1.38782 34.8086 1.32495 35.3458C1.32866 35.3458 1.26927 35.9962 1.26927 36.9709C1.26927 37.9456 1.32866 38.596 1.32866 38.5978C1.39177 39.1349 1.61245 39.6407 1.96235 40.0502C2.31225 40.4597 2.77538 40.7542 3.29226 40.8958L8.12144 42.0691ZM3.12522 36.9709C3.12522 36.1124 3.17533 35.5333 3.17719 35.5145C3.20676 35.3687 3.27275 35.2329 3.3689 35.12C3.46505 35.0072 3.58816 34.921 3.72655 34.8697L8.55944 33.6945C9.4967 33.4658 10.4414 32.5999 10.7346 31.7321L11.3359 30.2569C11.7591 29.3816 11.6997 28.0958 11.1967 27.2636L8.60398 22.9844C8.47964 22.7764 8.5149 22.364 8.63739 22.2234L10.755 20.0829C10.9239 19.9311 11.3545 19.8936 11.5475 20.0117L15.7865 22.6302C16.5901 23.1269 17.9672 23.1606 18.6966 22.7951L20.1591 22.1841C21.0704 21.8673 21.9278 20.9133 22.1543 19.9648L23.3161 15.0859C23.3665 14.9457 23.4516 14.8209 23.5634 14.7234C23.6752 14.6259 23.8099 14.5591 23.9545 14.5292C23.9731 14.5292 24.5466 14.4786 25.3966 14.4786C26.2466 14.4786 26.8201 14.5292 26.8387 14.5311C26.9831 14.561 27.1176 14.6276 27.2293 14.7247C27.341 14.8218 27.4264 14.9461 27.4771 15.0859L28.6408 19.9648C28.8672 20.9114 29.7228 21.8673 30.584 22.1635L32.0446 22.7708C32.8928 23.1906 34.2068 23.125 35.0086 22.6302L39.2457 20.0117C39.4387 19.8936 39.8953 19.9555 39.9992 20.0454L42.1187 22.1841C42.2783 22.3659 42.3136 22.7764 42.1892 22.9844L39.5965 27.2655C39.0935 28.0958 39.0341 29.3835 39.4332 30.2045L40.0382 31.6814C40.3519 32.6018 41.2965 33.4677 42.2356 33.6964L47.0667 34.8697C47.2055 34.9206 47.3291 35.0066 47.4256 35.1195C47.5221 35.2324 47.5883 35.3684 47.6179 35.5145C47.6179 35.5333 47.668 36.1124 47.668 36.9709C47.668 37.8293 47.6179 38.4085 47.616 38.4273C47.5865 38.5731 47.5205 38.7089 47.4243 38.8218C47.3282 38.9346 47.2051 39.0208 47.0667 39.072L42.2338 40.2473C41.2965 40.4759 40.3519 41.3419 40.0586 42.2097L39.4573 43.6848C39.0341 44.5602 39.0935 45.846 39.5965 46.6782L42.1892 50.9573C42.3136 51.1654 42.2783 51.5777 42.1558 51.7183L40.0382 53.8588C39.904 53.9601 39.7398 54.0123 39.5724 54.0069C39.4593 54.0106 39.3472 53.9841 39.2476 53.9301L35.0086 51.3116C34.2068 50.8168 32.8297 50.7811 32.0984 51.1466L30.636 51.7577C29.7247 52.0745 28.8672 53.0304 28.6427 53.9769L27.479 58.8559C27.4286 58.9961 27.3435 59.1209 27.2317 59.2184C27.1199 59.3158 26.9852 59.3827 26.8405 59.4126C26.8201 59.4126 26.2466 59.4632 25.3966 59.4632C24.5466 59.4632 23.9731 59.4126 23.9545 59.4107C23.8101 59.3808 23.6757 59.3142 23.5639 59.2171C23.4522 59.12 23.3669 58.9956 23.3161 58.8559L22.1524 53.9751C21.926 53.0285 21.0685 52.0745 20.2092 51.7783L18.7486 51.171C18.3333 50.976 17.8796 50.8786 17.4216 50.8861C16.811 50.8861 16.2301 51.0379 15.7847 51.3135L11.5475 53.9319C11.3545 54.05 10.8961 53.9863 10.794 53.8982L8.67451 51.7577C8.5149 51.5759 8.47964 51.1654 8.60398 50.9573L11.1967 46.6763C11.6997 45.846 11.7591 44.5583 11.3601 43.7373L10.755 42.2603C10.4414 41.34 9.4967 40.4741 8.55759 40.2454L3.72655 39.072C3.58772 39.0212 3.46414 38.9352 3.36763 38.8223C3.27112 38.7094 3.20491 38.5734 3.17533 38.4273C3.17533 38.4085 3.12522 37.8293 3.12522 36.9709Z"/>
</mask>
<path d="M8.12144 42.0691C8.44808 42.1479 8.89166 42.5546 9.01972 42.9257L9.6693 44.5077C9.81592 44.8113 9.78808 45.413 9.61362 45.7016L7.02086 49.9827C6.46593 50.9011 6.581 52.2019 7.32709 53.0454L9.52268 55.2609C10.2873 55.9469 11.6366 56.0706 12.5163 55.5326L16.7553 52.9142C17.0207 52.7492 17.5905 52.6911 17.9895 52.8804L19.5541 53.5327C19.8696 53.6433 20.2723 54.0894 20.3503 54.4193L21.514 59.3001C21.7608 60.3347 22.7389 61.1857 23.7894 61.2832C23.7894 61.2832 24.4334 61.3431 25.3985 61.3431C26.3636 61.3431 27.0076 61.2832 27.0094 61.2832C27.5412 61.2198 28.042 60.997 28.4472 60.6436C28.8524 60.2901 29.1435 59.8222 29.283 59.3001L30.4485 54.4193C30.5265 54.0913 30.9273 53.6433 31.2948 53.514L32.8612 52.8579C33.1378 52.7211 33.7781 52.7492 34.0435 52.9142L38.2825 55.5326C38.6555 55.7632 39.1009 55.885 39.5742 55.885C40.2145 55.885 40.8344 55.6582 41.3151 55.2252L43.5088 53.0079C43.8566 52.5933 44.0691 52.0804 44.1173 51.5392C44.1654 50.9981 44.0469 50.4551 43.7779 49.9845L41.1852 45.7035C41.0107 45.4149 40.9829 44.8132 41.1518 44.4571L41.7976 42.877C41.9071 42.5583 42.3489 42.1516 42.6755 42.0729L47.5084 40.8977C48.0254 40.7563 48.4887 40.4618 48.8386 40.0523C49.1885 39.6428 49.4091 39.1369 49.472 38.5997C49.472 38.5997 49.5314 37.9493 49.5314 36.9746C49.5314 36 49.472 35.3496 49.472 35.3477C49.4089 34.8106 49.1882 34.3048 48.8383 33.8953C48.4884 33.4858 48.0253 33.1914 47.5084 33.0497L42.6774 31.8764C42.3507 31.7977 41.9071 31.3909 41.7791 31.0198L41.1295 29.4378C40.9829 29.1342 41.0107 28.5325 41.1852 28.2439L43.7779 23.9629C44.3329 23.0444 44.2178 21.7436 43.4717 20.9002L41.2761 18.6847C40.5096 17.9968 39.1585 17.8731 38.2825 18.4129L34.0435 21.0314C33.7781 21.1944 33.2064 21.2563 32.8093 21.0651L31.2447 20.4128C30.9292 20.3022 30.5283 19.8561 30.4504 19.5262L29.2848 14.6454C29.1448 14.1233 28.8533 13.6554 28.4478 13.302C28.0423 12.9486 27.5414 12.7258 27.0094 12.6624C27.0057 12.6642 26.3617 12.6042 25.3966 12.6042C24.4315 12.6042 23.7875 12.6642 23.7857 12.6642C23.2538 12.728 22.753 12.9508 22.3475 13.3042C21.9421 13.6576 21.6505 14.1253 21.5103 14.6473L20.3484 19.5244C20.2705 19.8543 19.8677 20.3022 19.5003 20.4316L17.9338 21.0876C17.6554 21.2244 17.017 21.1944 16.7516 21.0314L12.5145 18.4129C11.6366 17.8731 10.3152 17.9668 9.48185 18.7203L7.28812 20.9376C6.94033 21.3522 6.72783 21.8651 6.67966 22.4063C6.63149 22.9474 6.75001 23.4904 7.019 23.961L9.61176 28.242C9.78622 28.5307 9.81406 29.1323 9.64517 29.4885L8.9993 31.0685C8.8898 31.3872 8.44808 31.7939 8.12144 31.8726L3.28854 33.0479C2.77155 33.1893 2.30828 33.4837 1.95835 33.8932C1.60841 34.3027 1.38782 34.8086 1.32495 35.3458C1.32866 35.3458 1.26927 35.9962 1.26927 36.9709C1.26927 37.9456 1.32866 38.596 1.32866 38.5978C1.39177 39.1349 1.61245 39.6407 1.96235 40.0502C2.31225 40.4597 2.77538 40.7542 3.29226 40.8958L8.12144 42.0691ZM3.12522 36.9709C3.12522 36.1124 3.17533 35.5333 3.17719 35.5145C3.20676 35.3687 3.27275 35.2329 3.3689 35.12C3.46505 35.0072 3.58816 34.921 3.72655 34.8697L8.55944 33.6945C9.4967 33.4658 10.4414 32.5999 10.7346 31.7321L11.3359 30.2569C11.7591 29.3816 11.6997 28.0958 11.1967 27.2636L8.60398 22.9844C8.47964 22.7764 8.5149 22.364 8.63739 22.2234L10.755 20.0829C10.9239 19.9311 11.3545 19.8936 11.5475 20.0117L15.7865 22.6302C16.5901 23.1269 17.9672 23.1606 18.6966 22.7951L20.1591 22.1841C21.0704 21.8673 21.9278 20.9133 22.1543 19.9648L23.3161 15.0859C23.3665 14.9457 23.4516 14.8209 23.5634 14.7234C23.6752 14.6259 23.8099 14.5591 23.9545 14.5292C23.9731 14.5292 24.5466 14.4786 25.3966 14.4786C26.2466 14.4786 26.8201 14.5292 26.8387 14.5311C26.9831 14.561 27.1176 14.6276 27.2293 14.7247C27.341 14.8218 27.4264 14.9461 27.4771 15.0859L28.6408 19.9648C28.8672 20.9114 29.7228 21.8673 30.584 22.1635L32.0446 22.7708C32.8928 23.1906 34.2068 23.125 35.0086 22.6302L39.2457 20.0117C39.4387 19.8936 39.8953 19.9555 39.9992 20.0454L42.1187 22.1841C42.2783 22.3659 42.3136 22.7764 42.1892 22.9844L39.5965 27.2655C39.0935 28.0958 39.0341 29.3835 39.4332 30.2045L40.0382 31.6814C40.3519 32.6018 41.2965 33.4677 42.2356 33.6964L47.0667 34.8697C47.2055 34.9206 47.3291 35.0066 47.4256 35.1195C47.5221 35.2324 47.5883 35.3684 47.6179 35.5145C47.6179 35.5333 47.668 36.1124 47.668 36.9709C47.668 37.8293 47.6179 38.4085 47.616 38.4273C47.5865 38.5731 47.5205 38.7089 47.4243 38.8218C47.3282 38.9346 47.2051 39.0208 47.0667 39.072L42.2338 40.2473C41.2965 40.4759 40.3519 41.3419 40.0586 42.2097L39.4573 43.6848C39.0341 44.5602 39.0935 45.846 39.5965 46.6782L42.1892 50.9573C42.3136 51.1654 42.2783 51.5777 42.1558 51.7183L40.0382 53.8588C39.904 53.9601 39.7398 54.0123 39.5724 54.0069C39.4593 54.0106 39.3472 53.9841 39.2476 53.9301L35.0086 51.3116C34.2068 50.8168 32.8297 50.7811 32.0984 51.1466L30.636 51.7577C29.7247 52.0745 28.8672 53.0304 28.6427 53.9769L27.479 58.8559C27.4286 58.9961 27.3435 59.1209 27.2317 59.2184C27.1199 59.3158 26.9852 59.3827 26.8405 59.4126C26.8201 59.4126 26.2466 59.4632 25.3966 59.4632C24.5466 59.4632 23.9731 59.4126 23.9545 59.4107C23.8101 59.3808 23.6757 59.3142 23.5639 59.2171C23.4522 59.12 23.3669 58.9956 23.3161 58.8559L22.1524 53.9751C21.926 53.0285 21.0685 52.0745 20.2092 51.7783L18.7486 51.171C18.3333 50.976 17.8796 50.8786 17.4216 50.8861C16.811 50.8861 16.2301 51.0379 15.7847 51.3135L11.5475 53.9319C11.3545 54.05 10.8961 53.9863 10.794 53.8982L8.67451 51.7577C8.5149 51.5759 8.47964 51.1654 8.60398 50.9573L11.1967 46.6763C11.6997 45.846 11.7591 44.5583 11.3601 43.7373L10.755 42.2603C10.4414 41.34 9.4967 40.4741 8.55759 40.2454L3.72655 39.072C3.58772 39.0212 3.46414 38.9352 3.36763 38.8223C3.27112 38.7094 3.20491 38.5734 3.17533 38.4273C3.17533 38.4085 3.12522 37.8293 3.12522 36.9709Z" fill="#0E38B1"/>
<path d="M8.12144 42.0691C8.44808 42.1479 8.89166 42.5546 9.01972 42.9257L9.6693 44.5077C9.81592 44.8113 9.78808 45.413 9.61362 45.7016L7.02086 49.9827C6.46593 50.9011 6.581 52.2019 7.32709 53.0454L9.52268 55.2609C10.2873 55.9469 11.6366 56.0706 12.5163 55.5326L16.7553 52.9142C17.0207 52.7492 17.5905 52.6911 17.9895 52.8804L19.5541 53.5327C19.8696 53.6433 20.2723 54.0894 20.3503 54.4193L21.514 59.3001C21.7608 60.3347 22.7389 61.1857 23.7894 61.2832C23.7894 61.2832 24.4334 61.3431 25.3985 61.3431C26.3636 61.3431 27.0076 61.2832 27.0094 61.2832C27.5412 61.2198 28.042 60.997 28.4472 60.6436C28.8524 60.2901 29.1435 59.8222 29.283 59.3001L30.4485 54.4193C30.5265 54.0913 30.9273 53.6433 31.2948 53.514L32.8612 52.8579C33.1378 52.7211 33.7781 52.7492 34.0435 52.9142L38.2825 55.5326C38.6555 55.7632 39.1009 55.885 39.5742 55.885C40.2145 55.885 40.8344 55.6582 41.3151 55.2252L43.5088 53.0079C43.8566 52.5933 44.0691 52.0804 44.1173 51.5392C44.1654 50.9981 44.0469 50.4551 43.7779 49.9845L41.1852 45.7035C41.0107 45.4149 40.9829 44.8132 41.1518 44.4571L41.7976 42.877C41.9071 42.5583 42.3489 42.1516 42.6755 42.0729L47.5084 40.8977C48.0254 40.7563 48.4887 40.4618 48.8386 40.0523C49.1885 39.6428 49.4091 39.1369 49.472 38.5997C49.472 38.5997 49.5314 37.9493 49.5314 36.9746C49.5314 36 49.472 35.3496 49.472 35.3477C49.4089 34.8106 49.1882 34.3048 48.8383 33.8953C48.4884 33.4858 48.0253 33.1914 47.5084 33.0497L42.6774 31.8764C42.3507 31.7977 41.9071 31.3909 41.7791 31.0198L41.1295 29.4378C40.9829 29.1342 41.0107 28.5325 41.1852 28.2439L43.7779 23.9629C44.3329 23.0444 44.2178 21.7436 43.4717 20.9002L41.2761 18.6847C40.5096 17.9968 39.1585 17.8731 38.2825 18.4129L34.0435 21.0314C33.7781 21.1944 33.2064 21.2563 32.8093 21.0651L31.2447 20.4128C30.9292 20.3022 30.5283 19.8561 30.4504 19.5262L29.2848 14.6454C29.1448 14.1233 28.8533 13.6554 28.4478 13.302C28.0423 12.9486 27.5414 12.7258 27.0094 12.6624C27.0057 12.6642 26.3617 12.6042 25.3966 12.6042C24.4315 12.6042 23.7875 12.6642 23.7857 12.6642C23.2538 12.728 22.753 12.9508 22.3475 13.3042C21.9421 13.6576 21.6505 14.1253 21.5103 14.6473L20.3484 19.5244C20.2705 19.8543 19.8677 20.3022 19.5003 20.4316L17.9338 21.0876C17.6554 21.2244 17.017 21.1944 16.7516 21.0314L12.5145 18.4129C11.6366 17.8731 10.3152 17.9668 9.48185 18.7203L7.28812 20.9376C6.94033 21.3522 6.72783 21.8651 6.67966 22.4063C6.63149 22.9474 6.75001 23.4904 7.019 23.961L9.61176 28.242C9.78622 28.5307 9.81406 29.1323 9.64517 29.4885L8.9993 31.0685C8.8898 31.3872 8.44808 31.7939 8.12144 31.8726L3.28854 33.0479C2.77155 33.1893 2.30828 33.4837 1.95835 33.8932C1.60841 34.3027 1.38782 34.8086 1.32495 35.3458C1.32866 35.3458 1.26927 35.9962 1.26927 36.9709C1.26927 37.9456 1.32866 38.596 1.32866 38.5978C1.39177 39.1349 1.61245 39.6407 1.96235 40.0502C2.31225 40.4597 2.77538 40.7542 3.29226 40.8958L8.12144 42.0691ZM3.12522 36.9709C3.12522 36.1124 3.17533 35.5333 3.17719 35.5145C3.20676 35.3687 3.27275 35.2329 3.3689 35.12C3.46505 35.0072 3.58816 34.921 3.72655 34.8697L8.55944 33.6945C9.4967 33.4658 10.4414 32.5999 10.7346 31.7321L11.3359 30.2569C11.7591 29.3816 11.6997 28.0958 11.1967 27.2636L8.60398 22.9844C8.47964 22.7764 8.5149 22.364 8.63739 22.2234L10.755 20.0829C10.9239 19.9311 11.3545 19.8936 11.5475 20.0117L15.7865 22.6302C16.5901 23.1269 17.9672 23.1606 18.6966 22.7951L20.1591 22.1841C21.0704 21.8673 21.9278 20.9133 22.1543 19.9648L23.3161 15.0859C23.3665 14.9457 23.4516 14.8209 23.5634 14.7234C23.6752 14.6259 23.8099 14.5591 23.9545 14.5292C23.9731 14.5292 24.5466 14.4786 25.3966 14.4786C26.2466 14.4786 26.8201 14.5292 26.8387 14.5311C26.9831 14.561 27.1176 14.6276 27.2293 14.7247C27.341 14.8218 27.4264 14.9461 27.4771 15.0859L28.6408 19.9648C28.8672 20.9114 29.7228 21.8673 30.584 22.1635L32.0446 22.7708C32.8928 23.1906 34.2068 23.125 35.0086 22.6302L39.2457 20.0117C39.4387 19.8936 39.8953 19.9555 39.9992 20.0454L42.1187 22.1841C42.2783 22.3659 42.3136 22.7764 42.1892 22.9844L39.5965 27.2655C39.0935 28.0958 39.0341 29.3835 39.4332 30.2045L40.0382 31.6814C40.3519 32.6018 41.2965 33.4677 42.2356 33.6964L47.0667 34.8697C47.2055 34.9206 47.3291 35.0066 47.4256 35.1195C47.5221 35.2324 47.5883 35.3684 47.6179 35.5145C47.6179 35.5333 47.668 36.1124 47.668 36.9709C47.668 37.8293 47.6179 38.4085 47.616 38.4273C47.5865 38.5731 47.5205 38.7089 47.4243 38.8218C47.3282 38.9346 47.2051 39.0208 47.0667 39.072L42.2338 40.2473C41.2965 40.4759 40.3519 41.3419 40.0586 42.2097L39.4573 43.6848C39.0341 44.5602 39.0935 45.846 39.5965 46.6782L42.1892 50.9573C42.3136 51.1654 42.2783 51.5777 42.1558 51.7183L40.0382 53.8588C39.904 53.9601 39.7398 54.0123 39.5724 54.0069C39.4593 54.0106 39.3472 53.9841 39.2476 53.9301L35.0086 51.3116C34.2068 50.8168 32.8297 50.7811 32.0984 51.1466L30.636 51.7577C29.7247 52.0745 28.8672 53.0304 28.6427 53.9769L27.479 58.8559C27.4286 58.9961 27.3435 59.1209 27.2317 59.2184C27.1199 59.3158 26.9852 59.3827 26.8405 59.4126C26.8201 59.4126 26.2466 59.4632 25.3966 59.4632C24.5466 59.4632 23.9731 59.4126 23.9545 59.4107C23.8101 59.3808 23.6757 59.3142 23.5639 59.2171C23.4522 59.12 23.3669 58.9956 23.3161 58.8559L22.1524 53.9751C21.926 53.0285 21.0685 52.0745 20.2092 51.7783L18.7486 51.171C18.3333 50.976 17.8796 50.8786 17.4216 50.8861C16.811 50.8861 16.2301 51.0379 15.7847 51.3135L11.5475 53.9319C11.3545 54.05 10.8961 53.9863 10.794 53.8982L8.67451 51.7577C8.5149 51.5759 8.47964 51.1654 8.60398 50.9573L11.1967 46.6763C11.6997 45.846 11.7591 44.5583 11.3601 43.7373L10.755 42.2603C10.4414 41.34 9.4967 40.4741 8.55759 40.2454L3.72655 39.072C3.58772 39.0212 3.46414 38.9352 3.36763 38.8223C3.27112 38.7094 3.20491 38.5734 3.17533 38.4273C3.17533 38.4085 3.12522 37.8293 3.12522 36.9709Z" stroke="#0E38B1" stroke-width="2" mask="url(#path-1-outside-1)"/>
<path d="M25.3967 47.7799C31.3065 47.7799 36.1044 42.9273 36.1044 36.9709C36.1044 31.0145 31.3065 26.1619 25.3967 26.1619C19.4868 26.1619 14.6889 31.0145 14.6889 36.9709C14.6889 42.9273 19.4868 47.7799 25.3967 47.7799ZM25.3967 29.0363C29.7205 29.0363 33.2484 32.5921 33.2484 36.9709C33.2484 41.3497 29.7205 44.9055 25.3967 44.9055C21.0728 44.9055 17.5449 41.3497 17.5449 36.9709C17.5449 32.5921 21.0728 29.0363 25.3967 29.0363Z" fill="#0E38B1" stroke="#0E38B1"/>
<mask id="path-3-outside-2" maskUnits="userSpaceOnUse" x="44.7978" y="-0.65686" width="36" height="37" fill="black">
<rect fill="white" x="44.7978" y="-0.65686" width="36" height="37"/>
<path d="M52.2652 11.3185C52.1406 11.4597 51.9701 11.5514 51.7845 11.5771L48.3306 11.5434C47.9044 11.5548 47.4911 11.6938 47.1432 11.9427C46.7952 12.1917 46.5283 12.5393 46.3763 12.9417C46.3763 12.9417 46.2241 13.3784 46.0571 14.0475C45.89 14.7167 45.8195 15.174 45.8195 15.174C45.6896 16.0194 46.1554 16.9547 46.9034 17.3501L49.949 18.9621C50.1122 19.087 50.2224 19.2699 50.2571 19.4738L50.4297 20.664C50.4406 20.852 50.3854 21.0379 50.2738 21.1888L47.8202 23.618C47.2059 24.2253 47.0444 25.2637 47.4676 26.079L48.5793 27.9534C49.0489 28.6506 50.0659 29.0068 50.864 28.7556L54.2492 27.7097C54.433 27.7097 54.6167 27.7809 54.7206 27.8653L55.6765 28.5775C55.8156 28.704 55.9062 28.8759 55.9326 29.063L55.8992 32.5343C55.8917 33.389 56.4857 34.2456 57.2837 34.5267C57.2837 34.5267 57.7161 34.6804 58.3787 34.8491C59.0413 35.0178 59.4941 35.0891 59.4941 35.0891C59.5424 35.0966 59.7354 35.1115 59.7837 35.1115C60.1642 35.1068 60.5369 35.001 60.8643 34.805C61.1916 34.6089 61.4622 34.3294 61.6489 33.9944L63.245 30.9186C63.3687 30.7537 63.5498 30.6425 63.7517 30.6075L64.9822 30.4275C65.1678 30.4275 65.3868 30.525 65.448 30.5887L67.8533 33.0666C68.438 33.6702 69.4235 33.8857 70.2902 33.4228L72.1443 32.3C72.8533 31.8127 73.1966 30.8193 72.9405 29.9927L71.916 26.6807C71.8886 26.4748 71.9404 26.2662 72.0608 26.0978L72.766 25.1325C72.8907 24.9912 73.0611 24.8995 73.2467 24.8738L76.7007 24.9076C77.1269 24.8961 77.5402 24.7571 77.8881 24.5082C78.236 24.2593 78.5029 23.9116 78.655 23.5093C78.655 23.5093 78.8072 23.0726 78.9742 22.4034C79.1412 21.7343 79.2117 21.2769 79.2117 21.2769C79.2668 20.8464 79.1931 20.409 78.9999 20.0212C78.8067 19.6333 78.503 19.3128 78.1279 19.1008L75.0823 17.4888C74.919 17.3639 74.8089 17.181 74.7742 16.9771L74.6034 15.7907C74.5925 15.6026 74.6477 15.4168 74.7593 15.2659L77.2129 12.8367C77.8272 12.2294 77.9887 11.191 77.5655 10.3757L76.4538 8.50131C75.9842 7.80592 74.969 7.44604 74.1691 7.69721L70.782 8.7431C70.6126 8.74286 70.4475 8.6884 70.3106 8.58753L69.3548 7.87527C69.2157 7.74879 69.125 7.57696 69.0987 7.38981L69.1321 3.91851C69.1249 3.48468 68.9892 3.06298 68.7424 2.70783C68.4956 2.35268 68.1491 2.08037 67.7476 1.92606C67.7476 1.92606 67.3151 1.77237 66.6525 1.60368C65.99 1.43498 65.5371 1.36376 65.5371 1.36376C65.4408 1.35409 65.3443 1.34721 65.2476 1.34314C64.867 1.34793 64.4944 1.45365 64.167 1.64972C63.8396 1.84578 63.569 2.1253 63.3824 2.46026L61.7862 5.53608C61.6625 5.70094 61.4814 5.81217 61.2796 5.84722L60.0491 6.02528C59.881 6.02161 59.7182 5.96528 59.5832 5.86409L57.1779 3.38619C56.8635 3.07028 56.4568 2.86506 56.0178 2.80091C55.5789 2.73677 55.1312 2.81712 54.7411 3.03006L52.8851 4.15093C52.1761 4.63826 51.8328 5.63167 52.0889 6.45826L53.1134 9.77025C53.1408 9.9761 53.089 10.1847 52.9686 10.3532L52.2652 11.3185ZM53.7871 12.3906L54.4237 11.5171C54.9211 10.923 55.1141 9.95393 54.884 9.21356L53.8613 5.90345C53.8521 5.85097 53.8929 5.73288 53.8836 5.73101L55.6431 4.66637L55.8528 4.69824L58.2599 7.17614C58.6868 7.61474 59.3902 7.89964 60.0509 7.89964C60.178 7.90166 60.305 7.88972 60.4295 7.86403L61.4967 7.70471C61.8975 7.6556 62.2814 7.51237 62.6176 7.28648C62.9537 7.06059 63.2328 6.75832 63.4325 6.4039L65.0267 3.32996C65.0841 3.26495 65.1636 3.22414 65.2494 3.21562C65.2699 3.2175 65.6485 3.28122 66.2015 3.41993C66.7528 3.5605 67.1165 3.68609 67.1332 3.69358C67.1908 3.71795 67.2743 3.83978 67.278 3.89976L67.2446 7.37107C67.2372 8.14705 67.6993 9.01863 68.2969 9.41224L69.1599 10.0551C69.7334 10.5444 70.7171 10.7505 71.4409 10.52L74.7333 9.48534C74.8113 9.48534 74.8985 9.53408 74.8874 9.50971L75.9416 11.2866C75.962 11.3353 75.9416 11.459 75.91 11.4984L73.4565 13.9294C72.9089 14.4749 72.625 15.4196 72.7753 16.1206L72.9312 17.1983C72.998 17.9706 73.54 18.7934 74.2211 19.1533L77.2649 20.7633C77.3286 20.8218 77.3689 20.9018 77.3781 20.9883C77.3237 21.3114 77.2562 21.6322 77.1758 21.9498C77.0988 22.2672 77.0084 22.5812 76.9048 22.8907C76.8807 22.9489 76.76 23.0332 76.7007 23.0369L73.2449 23.0032C72.4821 23.0032 71.6283 23.4699 71.2423 24.066L70.6076 24.9375C70.357 25.258 70.1847 25.6335 70.1048 26.0338C70.0248 26.434 70.0394 26.8476 70.1473 27.2411L71.1699 30.5512C71.1792 30.6018 71.1384 30.7218 71.1477 30.7237L69.3882 31.7883L69.1785 31.7565L66.7713 29.2786C66.3445 28.84 65.641 28.5551 64.9803 28.5551C64.8532 28.553 64.7263 28.565 64.6017 28.5907L63.5345 28.75C63.1337 28.7991 62.7499 28.9423 62.4137 29.1682C62.0775 29.3941 61.7985 29.6964 61.5988 30.0508L60.0045 33.1247C59.9471 33.1897 59.8676 33.2306 59.7818 33.2391C59.4618 33.1841 59.1442 33.116 58.8297 33.0348C58.5154 32.957 58.2046 32.8657 57.898 32.7611C57.8405 32.7367 57.757 32.6149 57.7533 32.5549L57.7867 29.0836C57.7941 28.3076 57.332 27.4361 56.7343 27.0424L55.8713 26.3995C55.5538 26.1463 55.1816 25.9723 54.7849 25.8915C54.3883 25.8107 53.9784 25.8255 53.5885 25.9347L50.2961 26.9693C50.2163 26.9693 50.129 26.9262 50.142 26.945L49.0878 25.1681C49.0674 25.1194 49.0878 24.9956 49.1194 24.9563L51.573 22.5252C52.1205 21.9798 52.4044 21.0351 52.2541 20.3341L52.0982 19.2582C52.0495 18.8532 51.9075 18.4654 51.6834 18.1259C51.4594 17.7863 51.1597 17.5046 50.8083 17.3033L47.7645 15.6932C47.7008 15.6348 47.6605 15.5548 47.6513 15.4683C47.6532 15.4477 47.7163 15.0653 47.8536 14.5067C47.9928 13.9501 48.1172 13.5827 48.1246 13.5658C48.1487 13.5077 48.2694 13.4234 48.3288 13.4196L51.7845 13.4534C52.5473 13.4534 53.4011 12.9866 53.7871 12.3906Z"/>
</mask>
<path d="M52.2652 11.3185C52.1406 11.4597 51.9701 11.5514 51.7845 11.5771L48.3306 11.5434C47.9044 11.5548 47.4911 11.6938 47.1432 11.9427C46.7952 12.1917 46.5283 12.5393 46.3763 12.9417C46.3763 12.9417 46.2241 13.3784 46.0571 14.0475C45.89 14.7167 45.8195 15.174 45.8195 15.174C45.6896 16.0194 46.1554 16.9547 46.9034 17.3501L49.949 18.9621C50.1122 19.087 50.2224 19.2699 50.2571 19.4738L50.4297 20.664C50.4406 20.852 50.3854 21.0379 50.2738 21.1888L47.8202 23.618C47.2059 24.2253 47.0444 25.2637 47.4676 26.079L48.5793 27.9534C49.0489 28.6506 50.0659 29.0068 50.864 28.7556L54.2492 27.7097C54.433 27.7097 54.6167 27.7809 54.7206 27.8653L55.6765 28.5775C55.8156 28.704 55.9062 28.8759 55.9326 29.063L55.8992 32.5343C55.8917 33.389 56.4857 34.2456 57.2837 34.5267C57.2837 34.5267 57.7161 34.6804 58.3787 34.8491C59.0413 35.0178 59.4941 35.0891 59.4941 35.0891C59.5424 35.0966 59.7354 35.1115 59.7837 35.1115C60.1642 35.1068 60.5369 35.001 60.8643 34.805C61.1916 34.6089 61.4622 34.3294 61.6489 33.9944L63.245 30.9186C63.3687 30.7537 63.5498 30.6425 63.7517 30.6075L64.9822 30.4275C65.1678 30.4275 65.3868 30.525 65.448 30.5887L67.8533 33.0666C68.438 33.6702 69.4235 33.8857 70.2902 33.4228L72.1443 32.3C72.8533 31.8127 73.1966 30.8193 72.9405 29.9927L71.916 26.6807C71.8886 26.4748 71.9404 26.2662 72.0608 26.0978L72.766 25.1325C72.8907 24.9912 73.0611 24.8995 73.2467 24.8738L76.7007 24.9076C77.1269 24.8961 77.5402 24.7571 77.8881 24.5082C78.236 24.2593 78.5029 23.9116 78.655 23.5093C78.655 23.5093 78.8072 23.0726 78.9742 22.4034C79.1412 21.7343 79.2117 21.2769 79.2117 21.2769C79.2668 20.8464 79.1931 20.409 78.9999 20.0212C78.8067 19.6333 78.503 19.3128 78.1279 19.1008L75.0823 17.4888C74.919 17.3639 74.8089 17.181 74.7742 16.9771L74.6034 15.7907C74.5925 15.6026 74.6477 15.4168 74.7593 15.2659L77.2129 12.8367C77.8272 12.2294 77.9887 11.191 77.5655 10.3757L76.4538 8.50131C75.9842 7.80592 74.969 7.44604 74.1691 7.69721L70.782 8.7431C70.6126 8.74286 70.4475 8.6884 70.3106 8.58753L69.3548 7.87527C69.2157 7.74879 69.125 7.57696 69.0987 7.38981L69.1321 3.91851C69.1249 3.48468 68.9892 3.06298 68.7424 2.70783C68.4956 2.35268 68.1491 2.08037 67.7476 1.92606C67.7476 1.92606 67.3151 1.77237 66.6525 1.60368C65.99 1.43498 65.5371 1.36376 65.5371 1.36376C65.4408 1.35409 65.3443 1.34721 65.2476 1.34314C64.867 1.34793 64.4944 1.45365 64.167 1.64972C63.8396 1.84578 63.569 2.1253 63.3824 2.46026L61.7862 5.53608C61.6625 5.70094 61.4814 5.81217 61.2796 5.84722L60.0491 6.02528C59.881 6.02161 59.7182 5.96528 59.5832 5.86409L57.1779 3.38619C56.8635 3.07028 56.4568 2.86506 56.0178 2.80091C55.5789 2.73677 55.1312 2.81712 54.7411 3.03006L52.8851 4.15093C52.1761 4.63826 51.8328 5.63167 52.0889 6.45826L53.1134 9.77025C53.1408 9.9761 53.089 10.1847 52.9686 10.3532L52.2652 11.3185ZM53.7871 12.3906L54.4237 11.5171C54.9211 10.923 55.1141 9.95393 54.884 9.21356L53.8613 5.90345C53.8521 5.85097 53.8929 5.73288 53.8836 5.73101L55.6431 4.66637L55.8528 4.69824L58.2599 7.17614C58.6868 7.61474 59.3902 7.89964 60.0509 7.89964C60.178 7.90166 60.305 7.88972 60.4295 7.86403L61.4967 7.70471C61.8975 7.6556 62.2814 7.51237 62.6176 7.28648C62.9537 7.06059 63.2328 6.75832 63.4325 6.4039L65.0267 3.32996C65.0841 3.26495 65.1636 3.22414 65.2494 3.21562C65.2699 3.2175 65.6485 3.28122 66.2015 3.41993C66.7528 3.5605 67.1165 3.68609 67.1332 3.69358C67.1908 3.71795 67.2743 3.83978 67.278 3.89976L67.2446 7.37107C67.2372 8.14705 67.6993 9.01863 68.2969 9.41224L69.1599 10.0551C69.7334 10.5444 70.7171 10.7505 71.4409 10.52L74.7333 9.48534C74.8113 9.48534 74.8985 9.53408 74.8874 9.50971L75.9416 11.2866C75.962 11.3353 75.9416 11.459 75.91 11.4984L73.4565 13.9294C72.9089 14.4749 72.625 15.4196 72.7753 16.1206L72.9312 17.1983C72.998 17.9706 73.54 18.7934 74.2211 19.1533L77.2649 20.7633C77.3286 20.8218 77.3689 20.9018 77.3781 20.9883C77.3237 21.3114 77.2562 21.6322 77.1758 21.9498C77.0988 22.2672 77.0084 22.5812 76.9048 22.8907C76.8807 22.9489 76.76 23.0332 76.7007 23.0369L73.2449 23.0032C72.4821 23.0032 71.6283 23.4699 71.2423 24.066L70.6076 24.9375C70.357 25.258 70.1847 25.6335 70.1048 26.0338C70.0248 26.434 70.0394 26.8476 70.1473 27.2411L71.1699 30.5512C71.1792 30.6018 71.1384 30.7218 71.1477 30.7237L69.3882 31.7883L69.1785 31.7565L66.7713 29.2786C66.3445 28.84 65.641 28.5551 64.9803 28.5551C64.8532 28.553 64.7263 28.565 64.6017 28.5907L63.5345 28.75C63.1337 28.7991 62.7499 28.9423 62.4137 29.1682C62.0775 29.3941 61.7985 29.6964 61.5988 30.0508L60.0045 33.1247C59.9471 33.1897 59.8676 33.2306 59.7818 33.2391C59.4618 33.1841 59.1442 33.116 58.8297 33.0348C58.5154 32.957 58.2046 32.8657 57.898 32.7611C57.8405 32.7367 57.757 32.6149 57.7533 32.5549L57.7867 29.0836C57.7941 28.3076 57.332 27.4361 56.7343 27.0424L55.8713 26.3995C55.5538 26.1463 55.1816 25.9723 54.7849 25.8915C54.3883 25.8107 53.9784 25.8255 53.5885 25.9347L50.2961 26.9693C50.2163 26.9693 50.129 26.9262 50.142 26.945L49.0878 25.1681C49.0674 25.1194 49.0878 24.9956 49.1194 24.9563L51.573 22.5252C52.1205 21.9798 52.4044 21.0351 52.2541 20.3341L52.0982 19.2582C52.0495 18.8532 51.9075 18.4654 51.6834 18.1259C51.4594 17.7863 51.1597 17.5046 50.8083 17.3033L47.7645 15.6932C47.7008 15.6348 47.6605 15.5548 47.6513 15.4683C47.6532 15.4477 47.7163 15.0653 47.8536 14.5067C47.9928 13.9501 48.1172 13.5827 48.1246 13.5658C48.1487 13.5077 48.2694 13.4234 48.3288 13.4196L51.7845 13.4534C52.5473 13.4534 53.4011 12.9866 53.7871 12.3906Z" fill="#0E38B1"/>
<path d="M52.2652 11.3185C52.1406 11.4597 51.9701 11.5514 51.7845 11.5771L48.3306 11.5434C47.9044 11.5548 47.4911 11.6938 47.1432 11.9427C46.7952 12.1917 46.5283 12.5393 46.3763 12.9417C46.3763 12.9417 46.2241 13.3784 46.0571 14.0475C45.89 14.7167 45.8195 15.174 45.8195 15.174C45.6896 16.0194 46.1554 16.9547 46.9034 17.3501L49.949 18.9621C50.1122 19.087 50.2224 19.2699 50.2571 19.4738L50.4297 20.664C50.4406 20.852 50.3854 21.0379 50.2738 21.1888L47.8202 23.618C47.2059 24.2253 47.0444 25.2637 47.4676 26.079L48.5793 27.9534C49.0489 28.6506 50.0659 29.0068 50.864 28.7556L54.2492 27.7097C54.433 27.7097 54.6167 27.7809 54.7206 27.8653L55.6765 28.5775C55.8156 28.704 55.9062 28.8759 55.9326 29.063L55.8992 32.5343C55.8917 33.389 56.4857 34.2456 57.2837 34.5267C57.2837 34.5267 57.7161 34.6804 58.3787 34.8491C59.0413 35.0178 59.4941 35.0891 59.4941 35.0891C59.5424 35.0966 59.7354 35.1115 59.7837 35.1115C60.1642 35.1068 60.5369 35.001 60.8643 34.805C61.1916 34.6089 61.4622 34.3294 61.6489 33.9944L63.245 30.9186C63.3687 30.7537 63.5498 30.6425 63.7517 30.6075L64.9822 30.4275C65.1678 30.4275 65.3868 30.525 65.448 30.5887L67.8533 33.0666C68.438 33.6702 69.4235 33.8857 70.2902 33.4228L72.1443 32.3C72.8533 31.8127 73.1966 30.8193 72.9405 29.9927L71.916 26.6807C71.8886 26.4748 71.9404 26.2662 72.0608 26.0978L72.766 25.1325C72.8907 24.9912 73.0611 24.8995 73.2467 24.8738L76.7007 24.9076C77.1269 24.8961 77.5402 24.7571 77.8881 24.5082C78.236 24.2593 78.5029 23.9116 78.655 23.5093C78.655 23.5093 78.8072 23.0726 78.9742 22.4034C79.1412 21.7343 79.2117 21.2769 79.2117 21.2769C79.2668 20.8464 79.1931 20.409 78.9999 20.0212C78.8067 19.6333 78.503 19.3128 78.1279 19.1008L75.0823 17.4888C74.919 17.3639 74.8089 17.181 74.7742 16.9771L74.6034 15.7907C74.5925 15.6026 74.6477 15.4168 74.7593 15.2659L77.2129 12.8367C77.8272 12.2294 77.9887 11.191 77.5655 10.3757L76.4538 8.50131C75.9842 7.80592 74.969 7.44604 74.1691 7.69721L70.782 8.7431C70.6126 8.74286 70.4475 8.6884 70.3106 8.58753L69.3548 7.87527C69.2157 7.74879 69.125 7.57696 69.0987 7.38981L69.1321 3.91851C69.1249 3.48468 68.9892 3.06298 68.7424 2.70783C68.4956 2.35268 68.1491 2.08037 67.7476 1.92606C67.7476 1.92606 67.3151 1.77237 66.6525 1.60368C65.99 1.43498 65.5371 1.36376 65.5371 1.36376C65.4408 1.35409 65.3443 1.34721 65.2476 1.34314C64.867 1.34793 64.4944 1.45365 64.167 1.64972C63.8396 1.84578 63.569 2.1253 63.3824 2.46026L61.7862 5.53608C61.6625 5.70094 61.4814 5.81217 61.2796 5.84722L60.0491 6.02528C59.881 6.02161 59.7182 5.96528 59.5832 5.86409L57.1779 3.38619C56.8635 3.07028 56.4568 2.86506 56.0178 2.80091C55.5789 2.73677 55.1312 2.81712 54.7411 3.03006L52.8851 4.15093C52.1761 4.63826 51.8328 5.63167 52.0889 6.45826L53.1134 9.77025C53.1408 9.9761 53.089 10.1847 52.9686 10.3532L52.2652 11.3185ZM53.7871 12.3906L54.4237 11.5171C54.9211 10.923 55.1141 9.95393 54.884 9.21356L53.8613 5.90345C53.8521 5.85097 53.8929 5.73288 53.8836 5.73101L55.6431 4.66637L55.8528 4.69824L58.2599 7.17614C58.6868 7.61474 59.3902 7.89964 60.0509 7.89964C60.178 7.90166 60.305 7.88972 60.4295 7.86403L61.4967 7.70471C61.8975 7.6556 62.2814 7.51237 62.6176 7.28648C62.9537 7.06059 63.2328 6.75832 63.4325 6.4039L65.0267 3.32996C65.0841 3.26495 65.1636 3.22414 65.2494 3.21562C65.2699 3.2175 65.6485 3.28122 66.2015 3.41993C66.7528 3.5605 67.1165 3.68609 67.1332 3.69358C67.1908 3.71795 67.2743 3.83978 67.278 3.89976L67.2446 7.37107C67.2372 8.14705 67.6993 9.01863 68.2969 9.41224L69.1599 10.0551C69.7334 10.5444 70.7171 10.7505 71.4409 10.52L74.7333 9.48534C74.8113 9.48534 74.8985 9.53408 74.8874 9.50971L75.9416 11.2866C75.962 11.3353 75.9416 11.459 75.91 11.4984L73.4565 13.9294C72.9089 14.4749 72.625 15.4196 72.7753 16.1206L72.9312 17.1983C72.998 17.9706 73.54 18.7934 74.2211 19.1533L77.2649 20.7633C77.3286 20.8218 77.3689 20.9018 77.3781 20.9883C77.3237 21.3114 77.2562 21.6322 77.1758 21.9498C77.0988 22.2672 77.0084 22.5812 76.9048 22.8907C76.8807 22.9489 76.76 23.0332 76.7007 23.0369L73.2449 23.0032C72.4821 23.0032 71.6283 23.4699 71.2423 24.066L70.6076 24.9375C70.357 25.258 70.1847 25.6335 70.1048 26.0338C70.0248 26.434 70.0394 26.8476 70.1473 27.2411L71.1699 30.5512C71.1792 30.6018 71.1384 30.7218 71.1477 30.7237L69.3882 31.7883L69.1785 31.7565L66.7713 29.2786C66.3445 28.84 65.641 28.5551 64.9803 28.5551C64.8532 28.553 64.7263 28.565 64.6017 28.5907L63.5345 28.75C63.1337 28.7991 62.7499 28.9423 62.4137 29.1682C62.0775 29.3941 61.7985 29.6964 61.5988 30.0508L60.0045 33.1247C59.9471 33.1897 59.8676 33.2306 59.7818 33.2391C59.4618 33.1841 59.1442 33.116 58.8297 33.0348C58.5154 32.957 58.2046 32.8657 57.898 32.7611C57.8405 32.7367 57.757 32.6149 57.7533 32.5549L57.7867 29.0836C57.7941 28.3076 57.332 27.4361 56.7343 27.0424L55.8713 26.3995C55.5538 26.1463 55.1816 25.9723 54.7849 25.8915C54.3883 25.8107 53.9784 25.8255 53.5885 25.9347L50.2961 26.9693C50.2163 26.9693 50.129 26.9262 50.142 26.945L49.0878 25.1681C49.0674 25.1194 49.0878 24.9956 49.1194 24.9563L51.573 22.5252C52.1205 21.9798 52.4044 21.0351 52.2541 20.3341L52.0982 19.2582C52.0495 18.8532 51.9075 18.4654 51.6834 18.1259C51.4594 17.7863 51.1597 17.5046 50.8083 17.3033L47.7645 15.6932C47.7008 15.6348 47.6605 15.5548 47.6513 15.4683C47.6532 15.4477 47.7163 15.0653 47.8536 14.5067C47.9928 13.9501 48.1172 13.5827 48.1246 13.5658C48.1487 13.5077 48.2694 13.4234 48.3288 13.4196L51.7845 13.4534C52.5473 13.4534 53.4011 12.9866 53.7871 12.3906Z" stroke="#0E38B1" stroke-width="2" mask="url(#path-3-outside-2)"/>
<path d="M67.5834 18.2273C67.5834 21.056 65.3045 23.3504 62.5156 23.3504C59.7266 23.3504 57.4477 21.056 57.4477 18.2273C57.4477 15.3986 59.7266 13.1042 62.5156 13.1042C65.3045 13.1042 67.5834 15.3986 67.5834 18.2273ZM66.7275 18.2273C66.7275 15.8884 64.8435 13.9786 62.5156 13.9786C60.1877 13.9786 58.3037 15.8884 58.3037 18.2273C58.3037 20.5662 60.1877 22.476 62.5156 22.476C64.8435 22.476 66.7275 20.5662 66.7275 18.2273Z" fill="#0E38B1" stroke="#0E38B1"/>
</svg>
