<svg width="23" height="21" viewBox="0 0 23 21" fill="none" xmlns="http://www.w3.org/2000/svg">
<path d="M20.9871 0.835361C20.7177 0.855367 20.4532 0.919878 20.204 1.02638H20.2006C19.9614 1.12317 18.8241 1.61142 17.095 2.3515L10.8989 5.01459C6.45286 6.92476 2.08235 8.8058 2.08235 8.8058L2.13439 8.78524C2.13439 8.78524 1.83306 8.88632 1.5183 9.10646C1.32385 9.23273 1.15652 9.39796 1.02644 9.59214C0.872002 9.82341 0.747777 10.1772 0.793942 10.5429C0.869484 11.1614 1.2623 11.5323 1.54432 11.737C1.8297 11.9443 2.10165 12.0411 2.10165 12.0411H2.10837L6.20693 13.4502C6.39075 14.0523 7.45589 17.626 7.71189 18.4491C7.86298 18.9408 8.00986 19.2483 8.19368 19.483C8.28265 19.6029 8.38673 19.7032 8.5118 19.7837C8.57681 19.8223 8.64614 19.8528 8.71828 19.8745L8.67631 19.8642C8.6889 19.8676 8.69897 19.8779 8.70821 19.8813C8.74178 19.8907 8.76444 19.8942 8.80725 19.901C9.45607 20.1015 9.97731 19.6903 9.97731 19.6903L10.0067 19.6663L12.4265 17.4178L16.4823 20.5931L16.5746 20.6334C17.4199 21.012 18.276 20.8013 18.7284 20.4295C19.1842 20.0552 19.3613 19.5764 19.3613 19.5764L19.3907 19.4993L22.5248 3.11385C22.6138 2.70955 22.6364 2.33094 22.5382 1.96347C22.4369 1.59157 22.2031 1.27171 21.8827 1.06664C21.6136 0.899702 21.3016 0.819127 20.9871 0.835361ZM20.9023 2.59134C20.899 2.64531 20.9091 2.63931 20.8855 2.74296V2.75238L17.7808 18.9674C17.7674 18.9905 17.7447 19.041 17.6826 19.0916C17.6171 19.1447 17.5651 19.1781 17.2923 19.0676L12.3317 15.1864L9.3352 17.9737L9.96472 13.8707L18.0695 6.16155C18.4036 5.84462 18.2919 5.7778 18.2919 5.7778C18.3154 5.38892 17.7875 5.66388 17.7875 5.66388L7.56753 12.125L7.56417 12.1079L2.6657 10.4247V10.4213L2.65311 10.4187C2.6617 10.4158 2.67011 10.4124 2.67829 10.4085L2.70515 10.3947L2.73117 10.3853C2.73117 10.3853 7.10504 8.50428 11.5511 6.59412C13.7771 5.63733 16.0198 4.67368 17.7447 3.93017C19.4696 3.19094 20.7445 2.64873 20.8167 2.61961C20.8856 2.5922 20.8528 2.5922 20.9023 2.5922V2.59134Z" fill="#3A3A3A"/>
</svg>
