<svg width="21" height="21" viewBox="0 0 21 21" fill="none" xmlns="http://www.w3.org/2000/svg">
<path fill-rule="evenodd" clip-rule="evenodd" d="M17.7739 3.74016C16.8557 2.81599 15.7633 2.08319 14.56 1.58423C13.3566 1.08526 12.0662 0.830034 10.7635 0.833345C5.30094 0.833345 0.854051 5.27913 0.851843 10.7439C0.851843 12.4904 1.30779 14.195 2.17443 15.6986L0.769043 20.8333L6.02295 19.4544C7.47624 20.2455 9.10441 20.6604 10.7591 20.6611H10.7635C16.225 20.6611 20.6718 16.2153 20.674 10.7505C20.6778 9.44835 20.4234 8.15834 19.9256 6.95506C19.4278 5.75178 18.6965 4.6591 17.7739 3.74016ZM10.7635 18.9885H10.7602C9.28472 18.9887 7.83641 18.5917 6.56722 17.8393L6.26693 17.6604L3.14925 18.4785L3.98056 15.4392L3.78515 15.1279C2.96024 13.8146 2.52355 12.2948 2.5255 10.7439C2.5277 6.20207 6.22277 2.507 10.7668 2.507C11.849 2.5046 12.9209 2.71685 13.9205 3.13148C14.9201 3.5461 15.8276 4.15487 16.5904 4.92254C17.3572 5.68655 17.9651 6.59498 18.3787 7.59531C18.7924 8.59564 19.0037 9.66804 19.0004 10.7505C18.9982 15.2924 15.3031 18.9885 10.7635 18.9885ZM15.2821 12.8183C15.0337 12.6936 13.8171 12.0952 13.5897 12.0124C13.3634 11.9296 13.1989 11.8887 13.0333 12.136C12.8677 12.3833 12.393 12.9409 12.2484 13.1065C12.1037 13.2721 11.9591 13.2919 11.7118 13.1683C11.4645 13.0446 10.6663 12.783 9.72022 11.9395C8.98386 11.2827 8.48706 10.4723 8.34244 10.2239C8.19782 9.97552 8.32698 9.84194 8.45173 9.71829C8.56324 9.60789 8.69903 9.42905 8.82268 9.28442C8.94632 9.1398 8.98717 9.03713 9.06997 8.87153C9.15277 8.70593 9.11192 8.56131 9.049 8.43766C8.98717 8.31291 8.49148 7.0941 8.28503 6.59841C8.08521 6.11817 7.88097 6.1822 7.72862 6.17558C7.57083 6.16912 7.41292 6.16618 7.25501 6.16674C7.12943 6.16994 7.00588 6.19905 6.89208 6.25225C6.77828 6.30544 6.67671 6.38157 6.59371 6.47586C6.36629 6.72426 5.72708 7.32263 5.72708 8.54144C5.72708 9.76025 6.61469 10.9382 6.73834 11.1038C6.86198 11.2694 8.48486 13.77 10.9688 14.843C11.5606 15.0981 12.022 15.2504 12.3808 15.3652C12.9737 15.554 13.5135 15.5264 13.9408 15.4635C14.4166 15.3928 15.4058 14.8651 15.6122 14.2866C15.8187 13.7081 15.8187 13.2124 15.7569 13.1087C15.695 13.0049 15.5283 12.942 15.2821 12.8183Z" fill="#3A3A3A"/>
</svg>
